Patient4_TMGait_0pt3_03_right_26_EMG.mot
version=1
nRows=26
nColumns=33
inDegrees=no
endheader
time	1LAddLong	2LGlutMax	3LGlutMed	4LIliopsoas	5LSemiMemb	6LBicFemLong	7LRecFem	8LVastMed	9LVastLat	10LGasMed	11LTibAnt	12lTibPost	13LPeroneusLong	14LSol	15LExtDigLong	16LFlexDigLong	17RAddLong	18RGlutMax	19RGlutMed	20RIliopsoas	21RSemiMemb	22RBicFemLong	23RRecFem	24RVastMed	25RVastLat	26RGasMed	27RTibAnt	28RTibPost	29RPeroneusLong	30RSol	31RExtDigLong	32RFlexDigLong
49.17	-0.011902	-0.11505	-0.002441	0.010071	-0.055847	0.20371	0.00412	0.005951	-0.005341	0.038757	0.054932	0.038757	-0.053558	-0.054779	-0.057068	-0.005646	-0.023499	0.82687	0.070038	0.016785	-0.083618	-0.032349	-0.44632	0.22354	0.10666	0.090027	-0.068665	0.009918	1.6566	0.25314	-0.000305	-0.001373
49.171	-0.008545	-0.097504	-0.007782	0.01297	-0.057526	0.17929	-0.034332	-0.002441	0.022736	0.036469	0.10941	0.019836	-0.064545	-0.007324	0.35965	-0.021057	-0.002136	0.85678	-0.08255	-0.016785	-0.096283	0.18921	-0.45792	0.15335	0.18082	0.12558	-0.076141	-0.015411	0.5191	-0.014038	-0.001678	0.009308
49.172	-0.005341	-0.0914	0.003204	0.010071	-0.068512	0.12207	-0.080414	-0.006256	0.039368	0.016937	0.13184	-0.061951	-0.020599	0.045929	0.41351	-0.011749	0.031891	0.87463	-0.25726	-0.0354	-0.046234	-0.047913	-0.14069	-0.041046	0.11414	0.061188	-0.087128	-0.018463	-1.1075	-0.012054	-0.003357	0.001526
49.173	0.01297	-0.13412	-0.009003	0.00473	-0.033875	0.020905	-0.053864	0.00061	0.021362	-0.006256	-0.022278	0.043945	0.075378	0.031433	-0.26474	0.013123	0.029449	0.96481	-0.31509	-0.11032	-0.09903	-0.0737	-0.036163	-0.082092	0.067444	0.030212	-0.035095	-0.02243	-0.98999	0.13077	-0.005341	0.004578
49.174	-0.009918	-0.13443	-0.006256	0.018463	0.002136	-0.093384	-0.03479	0.003204	0.004883	0.006256	-0.083466	0.045624	0.067902	-0.003052	-0.38956	-0.001526	0.073853	0.85739	-0.40955	-0.074005	-0.21271	0.12695	0.06134	-0.099182	0.025787	0.013428	-0.018005	-0.036163	-0.64926	0.15243	-0.002441	-0.009613
49.175	-0.014954	-0.12253	0.010071	0.030975	0.01236	-0.13702	-0.02594	0.005798	-0.002136	0.03067	-0.10941	0.047455	-0.004425	-0.1355	-0.16647	0.003204	0.08728	0.87143	0.20844	-0.22614	-0.2594	0.079651	0.070038	-0.004425	0.024414	-0.046997	-0.043488	-0.041656	0.010071	0.088043	-0.001221	-0.006104
49.176	-0.028076	-0.083618	0.050354	0.027618	-0.063629	-0.1648	-0.047455	0.003204	0.014191	0.038605	-0.10284	0.035858	-0.02655	-0.1062	0.15015	-0.000916	0.091553	0.81284	0.57266	-0.28976	-0.28854	0.14343	0.11292	-0.030975	0.010071	-0.12253	-0.10925	-0.042725	1.9139	-0.11444	-0.000153	-0.003662
49.177	-0.028229	-0.083618	0.052795	0.016937	-0.12543	-0.11932	-0.043793	-0.003204	0.002136	0.046692	0.041199	0.031128	-0.04303	0.030365	0.44235	0.00351	0.076904	0.70374	-0.012207	-0.038452	-0.11765	0.099335	0.14374	-0.024109	-0.015106	-0.13947	-0.11383	-0.051727	0.90118	-0.23499	-0.000458	0.001984
49.178	-0.022888	-0.11185	-0.007782	0.01236	-0.034485	-0.014954	-0.037079	-0.002747	0.028992	0.016479	-0.083466	0.026093	-0.034027	0.001526	0.13809	0.014954	-0.011139	0.51605	-0.28305	0.17746	-0.006256	0.18601	0.17975	0.12543	-0.011444	-0.014343	0.00351	-0.08194	-0.8107	-0.27466	-0.001831	-0.006714
49.179	-0.019073	-0.10117	0.002289	0.00351	0.057068	0.14877	-0.045013	-0.007782	0.037537	0.014038	-0.016022	0.000916	-0.044708	0.010986	0.33264	0.012665	-0.053406	0.46234	-0.2272	0.23117	0.13672	0.036621	0.23789	0.20096	-0.032349	-0.19501	0.007782	-0.079803	-0.49881	-0.27191	-0.001526	-0.006714
49.18	0.001221	-0.072632	-0.011139	0.006256	0.088806	0.045013	-0.053101	-0.003967	0.040894	0.019836	-0.038147	-0.055237	-0.002441	0.042267	0.60577	0.006561	-0.030365	0.42084	-0.087891	0.30945	0.096893	-0.071259	0.26688	0.15717	-0.002136	-0.15121	-0.014343	-0.093842	0.19562	-0.19577	-0.003662	-0.012207
49.181	0.01709	-0.090942	-0.013733	0.020905	0.13077	-0.032654	-0.062408	-0.02121	0.039215	-0.012817	-0.084534	-0.15366	0.042725	0.072479	-0.35919	0.000153	-0.037537	0.33493	-0.4187	0.31174	0.14862	-0.041046	0.18005	0.17578	0.013885	-0.00473	-0.042114	0.016937	0.41931	-0.1416	-0.002136	-0.005798
49.182	0.019379	-0.13321	0.028381	0.014801	0.12207	0.030365	-0.014496	-0.009613	0.022583	-0.050049	-0.16434	-0.048676	0.07019	0.011902	0.12528	-0.007935	-0.031433	0.30182	-0.63004	0.18921	0.16251	-0.04776	0.14526	0.099792	-0.077209	0.018005	-0.016327	0.006866	1.1049	-0.14755	-0.000305	-0.010529
49.183	0.007324	-0.1294	0.061646	0.009308	0.091095	0.076447	0.011749	0.002747	0.010223	-0.075378	-0.29831	-0.025635	0.092621	0.168	-0.30334	-0.001831	-0.014191	0.20218	-0.24689	0.073242	0.04364	-0.015259	0.11261	0.069733	-0.076294	0.13168	0.033264	-0.03952	1.2469	0.25665	0.004578	-0.024872
49.184	-0.007019	-0.13016	0.025482	-0.019226	0.080109	0.084686	-0.029907	0.002441	0.007477	-0.021057	-0.14099	-0.039063	0.000458	0.15533	-0.26855	-0.001373	0.00473	0.19882	0.11246	0.026398	-0.04715	0.013275	0.005798	-0.084534	-0.12741	0.13504	0.074005	0.060425	0.84732	0.28442	-0.002289	-0.014343
49.185	-0.013275	-0.13657	-0.052032	-0.022736	0.055847	0.057373	-0.027466	0.003204	0.005341	0.006714	0.000763	-0.031738	-0.004883	0.10391	-0.51315	-0.004578	0.005646	0.22354	0.46768	0.001373	-0.10178	-0.031128	-0.40176	-0.18677	-0.031891	0.10925	0.035858	0.066376	0.19669	-0.1181	-0.002441	-0.01358
49.186	-0.01358	-0.16769	-0.042114	-0.007782	0.046539	-0.045319	-0.031891	0.004578	0.009155	0.01709	0.007477	-0.032043	-0.08316	0.092621	0.88013	0.010223	-0.01709	0.17487	0.17899	-0.000916	0.11612	-0.0177	-0.44418	-0.13382	0.020905	0.075226	-0.05249	-0.001373	0.74829	-0.092621	0.00824	-0.008392
49.187	-0.016022	-0.18646	-0.013275	-0.011749	0.056915	-0.025024	-0.019989	-0.006866	-0.00885	0.00885	0.036163	-0.038605	-0.054169	0.097198	-0.13825	0.01297	-0.033569	0.10681	-0.2504	-0.018311	0.10407	0.000763	-0.088806	-0.09079	0.021667	0.066071	-0.11383	0.027924	-0.10361	0.3154	-0.003204	-0.005798
49.188	-0.031891	-0.16159	0.00473	-0.001526	0.068817	-0.018463	-0.053711	-0.009613	0.00473	-0.024719	-0.063324	-0.024261	-0.00351	0.091858	-0.1799	-0.006409	-0.023193	0.13138	-0.33402	-0.095673	0.066986	-0.026398	0.068054	-0.00061	-0.076294	0.052643	-0.070801	0.020142	-0.77011	0.22888	-0.003204	-0.00061
49.189	-0.013428	-0.14542	0.017242	0.000916	0.059204	-0.041656	-0.043793	-0.003357	0.007172	0.003204	-0.008087	-0.025635	-0.027008	0.017548	-0.48584	-0.003815	-0.022278	0.23209	-0.1297	-0.053558	0.066681	-0.032349	-0.13779	0.022888	-0.017395	0.050049	-0.01297	0.00473	-0.9903	-0.047302	-0.001678	0.006256
49.19	-0.020905	-0.16235	0.027771	-0.010986	0.024414	-0.012817	-0.034027	0.002441	-0.007629	0.015869	0.17044	-0.038605	-0.041962	-0.059357	-0.29938	0.004578	-0.014801	0.25314	-0.004578	-0.002136	0.020294	0.012207	-0.29327	-0.023651	0.076294	0.038452	0.015564	-0.006409	-0.33951	0.017395	-0.003052	0.003357
49.191	-0.009613	-0.16586	0.010681	0.003357	-0.030823	0.004883	-0.044403	0.003967	-0.00351	0.014954	0.21851	-0.024872	-0.070801	-0.10315	0.10025	0.012054	-0.01297	0.22858	0.11261	0.060272	-0.053558	0.06012	-0.21332	0.12405	0.27374	0.029144	0.075531	-0.00412	-0.75485	-0.074921	-0.001831	-0.00061
49.192	-0.003967	-0.19318	0.006561	0.026398	0.000305	0.010834	-0.031433	0	-0.010681	0.002136	0.22644	-0.028381	0.039825	-0.11917	0.43655	-0.000153	0.017548	0.15243	0.20187	0.11871	-0.11475	0.04715	0.035095	0.20309	0.18448	0.020447	0.032349	0.011292	-0.29434	-0.085449	-0.003662	-0.006561
49.193	0.005341	-0.20828	0.027618	0.014343	-0.007477	0.038605	-0.031586	0.009155	-0.015259	0.051575	0.29511	-0.010834	-0.006714	-0.16968	-0.015564	-0.007782	0.028992	0.14496	-0.005798	0.088501	-0.11063	0.069122	0.05661	0.046692	0.033569	0.026855	-0.021667	-0.005951	0.035248	-0.075989	-0.001984	-0.005951
49.194	0.00351	-0.19318	0.029907	0.022736	-0.007782	-0.000458	-0.026093	0.001068	0.001373	0.029449	0.16357	-0.027161	-0.021667	-0.17151	0.021362	-0.011597	0.006256	0.1799	-0.11063	0.001678	0.016785	-0.00412	0.070496	0.003204	-0.019073	0.018921	0.050049	-0.010071	-0.42191	-0.056	-0.004578	-0.008545
49.195	0.006104	-0.16144	0.016632	0.015106	0.001221	-0.046387	-0.041809	-0.015564	-0.000305	0.017853	-0.3392	-0.032806	0.024261	-0.071411	-0.12054	-0.011292	-0.015411	0.35477	0.086517	-0.099335	0.065308	-0.043182	-0.000916	-0.084229	0.16037	0.008545	0.15427	-0.014191	-0.62439	-0.037689	-0.002899	-0.011292
